<?xml version="1.0" encoding="UTF-8"?>
<svg id="_레이어_1" data-name="레이어_1" xmlns="http://www.w3.org/2000/svg" version="1.1" viewBox="0 0 555.01 676.18">
  <defs>
    <style>
      .st0 {
        fill: #452e82;
      }
    </style>
  </defs>
  <path class="st0" d="M363.44,676.14l84.66.03c2.6-.48,4.04-2.2,4.04-4.55l-.11-68.21c0-5.16-4.56-8.76-9.29-8.75l-74.16.02c-5.55,0-9.18,4.83-9.17,9.95l.02,67.65c0,2.12,1.82,3.87,4.01,3.87Z"/>
  <circle class="st0" cx="331.87" cy="229.82" r="56.26" transform="translate(-43.92 82.4) rotate(-13.28)"/>
  <path class="st0" d="M554.49,626.71l.27-155.36c0-2.85-2.14-4.54-4.77-4.54h-185.83c-3.19-.01-4.71,2.2-4.71,5.08l-.06,68.28c0,5.93-5.52,10.03-10.78,10.14-5.07.11-10.97-3.77-10.97-9.79v-120.42c0-5.9,5.45-9.78,10.44-10.02,5.08-.25,11.12,3.37,11.18,9.07l.23,22.11c.02,1.97,1.65,3.9,4.02,3.9h187.72c1.99,0,3.43-2.33,3.44-3.93l.22-48.77c.01-2.45-1.54-4.58-4.3-4.58l-450.74-.11c-21.58,0-38.58-18.58-38.57-39.56v-81.41c.01-5.95,5.51-9.85,10.82-9.87,4.87-.02,10.32,3.89,10.33,9.66l.16,82.22c.02,9.62,8.08,17.73,17.92,17.73l331.62-.08c4.51,0,7.33-3.91,7.33-8l.06-208.68c0-6.14,6.91-9.66,11.79-9.1,5.46.63,9.58,5.23,9.54,10.89l-.1,15.16-.04,194.34c0,3.28,2.42,5.42,5.55,5.42l83.81-.02c3.31,0,4.71-2.31,4.71-5.43l.24-308.97c.02-26.52-19.74-51.54-47.5-51.59L243.76.08,221.45,0c-2.48,0-4.5,1.92-4.5,4.65l-.02,154.1v139.21c0,6.01-4.8,10.08-10.21,10.3-4.54.18-10.64-3.38-10.64-8.92l-.05-77.92-26.49-30.35-69.02-79.34-63.04,73.25L.28,228.47l.03,196.33c0,3.08,2.14,4.66,5.19,4.66l280.23-.03c6.8,0,11.51,4.38,11.47,10.83-.03,5.7-4.42,10.49-10.89,10.49H4.85c-2.75,0-4.56,1.8-4.56,4.23v51.3c0,2.59,1.96,4.42,4.55,4.42l51.38.03,228.86-.05c6.57,0,11.48,3.28,12.11,9.75.5,5.13-3.3,11.65-9.73,11.65l-282.61.03c-2.64,0-4.53,1.97-4.53,4.31l-.08,88.47c-.02,26.5,20.76,50.94,48.18,50.97l258.76.24,25.59.08c2.61,0,4.82-1.62,4.82-4.55l.05-75.43c0-11.55,9.87-22.64,21.76-22.64l93.11.02c10.92,0,20.85,10.31,20.89,21.15l.27,76.89c0,2.55,1.7,4.53,4.22,4.5l31.29-.37c25.18-2.08,45.25-23.67,45.3-49.05ZM331.93,151.72c43.16,0,78.14,34.99,78.14,78.14s-34.99,78.14-78.14,78.14-78.14-34.99-78.14-78.14,34.98-78.14,78.14-78.14Z"/>
  <path class="st0" d="M3.67,191.47l86.06-100.56c4.85-5.67,14.76-7.49,20.08-1.35l85.85,99.07.38-59.7c-.54-.72-1.38-1.54-1.94-1.89l-31-.02c-5.46,0-8.94-5.06-9.09-9.66-.14-4.21,3.2-9.82,8.23-9.84l31.26-.16c1.27,0,2.49-1.27,2.49-2.72l-.02-100.59c0-2.63-2.3-3.89-4.6-3.89l-122.77-.04-18.93-.04C21.41.71.09,23.37.07,51.49L0,189.89c0,.69.89,2.13,1.39,2.41s1.74-.21,2.28-.83Z"/>
</svg>
