<?xml version="1.0" encoding="UTF-8"?>
<svg id="_레이어_1" data-name="레이어_1" xmlns="http://www.w3.org/2000/svg" version="1.1" viewBox="0 0 594.55 716.39">
  <defs>
    <style>
      .st0 {
        fill: #FFFFFF;
      }
    </style>
  </defs>
  <path class="st0" d="M351.96,170.89c-43.36,0-78.52,35.15-78.52,78.52s35.15,78.51,78.52,78.51,78.51-35.15,78.51-78.51-35.15-78.52-78.51-78.52ZM351.9,305.89c-31.22,0-56.53-25.31-56.53-56.52s25.31-56.53,56.53-56.53,56.52,25.31,56.52,56.53-25.31,56.52-56.52,56.52Z"/>
  <path class="st0" d="M526.1,0H68.45C30.73,0,0,30.7,0,68.42v579.55c0,37.72,30.73,68.42,68.45,68.42h457.65c37.72,0,68.45-30.7,68.45-68.42V68.42c0-37.72-30.73-68.42-68.45-68.42ZM18.52,70.19c.01-28.26,21.44-51.03,49.84-51.65l19.01.03,123.36.04c2.31,0,4.62,1.27,4.62,3.91l.02,101.07c0,1.45-1.23,2.72-2.51,2.73l-31.41.16c-5.05.02-8.41,5.66-8.27,9.89.15,4.62,3.65,9.7,9.13,9.71l31.15.02c.57.35,1.41,1.18,1.95,1.9l-.38,59.98-86.26-99.54c-5.35-6.17-15.3-4.35-20.18,1.35L22.13,210.83c-.54.62-1.78,1.12-2.29.83-.51-.28-1.4-1.73-1.4-2.42l.07-139.05ZM468.69,697.85l-85.07-.04c-2.2,0-4.03-1.76-4.03-3.89l-.02-67.97c0-5.14,3.65-9.99,9.22-9.99l74.51-.02c4.75,0,9.33,3.61,9.34,8.79l.11,68.54c0,2.36-1.44,4.09-4.06,4.58ZM471.9,159.8c-4.9-.57-11.84,2.97-11.84,9.14l-.06,209.68c0,4.11-2.83,8.04-7.36,8.04l-333.21.08c-9.89,0-17.99-8.14-18.01-17.81l-.16-82.61c-.01-5.8-5.48-9.73-10.38-9.71-5.34.02-10.86,3.93-10.86,9.91v81.8c-.02,21.08,17.06,39.74,38.74,39.75l452.9.11c2.78,0,4.33,2.13,4.32,4.6l-.22,49c0,1.61-1.46,3.95-3.46,3.95h-188.61c-2.39,0-4.02-1.93-4.04-3.91l-.23-22.22c-.06-5.73-6.13-9.36-11.23-9.11-5.01.24-10.5,4.14-10.5,10.07v120.99c0,6.05,5.94,9.95,11.03,9.84,5.29-.11,10.83-4.23,10.83-10.19l.06-68.61c0-2.89,1.53-5.11,4.73-5.11h186.72c2.65,0,4.8,1.71,4.79,4.57l-.27,156.11c-.04,25.5-20.21,47.19-45.51,49.28l-31.44.37c-2.53.03-4.23-1.96-4.24-4.52l-.27-77.26c-.04-10.89-10.02-21.25-20.99-21.25l-93.56-.02c-11.94,0-21.85,11.14-21.86,22.74l-.06,75.79c0,2.94-2.22,4.58-4.85,4.57l-25.71-.08-260-.24c-27.55-.03-48.43-24.58-48.41-51.21l.08-88.9c0-2.35,1.9-4.33,4.55-4.33l283.96-.03c6.46,0,10.29-6.56,9.78-11.71-.64-6.51-5.57-9.8-12.17-9.8l-229.96.06-51.62-.03c-2.6,0-4.56-1.84-4.56-4.44v-51.54c0-2.44,1.81-4.25,4.57-4.25h282.82c6.5,0,10.9-4.81,10.94-10.54.04-6.47-4.69-10.88-11.53-10.88l-281.57.03c-3.07,0-5.22-1.59-5.22-4.69l-.03-197.26,37.37-43.69,63.34-73.6,69.35,79.72,26.61,30.5.05,78.29c0,5.57,6.13,9.15,10.69,8.96,5.43-.22,10.26-4.31,10.26-10.35v-139.88l.02-154.84c0-2.74,2.03-4.68,4.53-4.67l22.42.08,265.01.4c27.89.04,47.75,25.19,47.73,51.83l-.24,310.45c0,3.13-1.41,5.46-4.74,5.46l-84.21.02c-3.15,0-5.58-2.15-5.58-5.45l.04-195.27.11-15.24c.04-5.68-4.1-10.3-9.59-10.94Z"/>
</svg>
